# xmcd
# 
# Track frame offsets:
#     150
#     16140
#     32325
#     48390
#     63525
#     79037
#     96425
#     112165
#     131030
#     149787
#     165850
#     184137
#     201262
#     219997
#     240090
#     261910
# 
# Disc length: 3751
# 
# Revision: 2
# Processed by: cddbd v1.5.2PL0 Copyright (c) Steve Scherf et al.
# Submitted via: fre:ac v1.0.17
# 
DISCID=df0ea510
DTITLE=浅香唯 - シングル・コレクション
DYEAR=1995
DGENRE=J-Pop
TTITLE0=夏少女
TTITLE1=一人ぼっちのランデブー
TTITLE2=ふたりのMoon River
TTITLE3=ヤッパシ…H!
TTITLE4=コンプレックスBANZAI!!
TTITLE5=10月のクリスマス
TTITLE6=STAR
TTITLE7=瞳にSTORM
TTITLE8=エスケイプの夏
TTITLE9=虹のDreamer
TTITLE10=Blue Horizon
TTITLE11=Remember
TTITLE12=Believe Again
TTITLE13=19時のLunar
TTITLE14=勇気
TTITLE15=C-Girl
EXTD=
EXTT0=
EXTT1=
EXTT2=
EXTT3=
EXTT4=
EXTT5=
EXTT6=
EXTT7=
EXTT8=
EXTT9=
EXTT10=
EXTT11=
EXTT12=
EXTT13=
EXTT14=
EXTT15=
PLAYORDER=
